<svg width="208" height="48" viewBox="0 0 208 48" fill="none" xmlns="http://www.w3.org/2000/svg">
<rect width="208" height="48" rx="8" fill="#B00000"/>
<path d="M58.47 22.07C58.1993 21.5007 57.8073 21.062 57.294 20.754C56.7807 20.4367 56.1833 20.278 55.502 20.278C54.8207 20.278 54.2047 20.4367 53.654 20.754C53.1127 21.062 52.6833 21.51 52.366 22.098C52.058 22.6767 51.904 23.3487 51.904 24.114C51.904 24.8793 52.058 25.5513 52.366 26.13C52.6833 26.7087 53.1127 27.1567 53.654 27.474C54.2047 27.782 54.8207 27.936 55.502 27.936C56.454 27.936 57.238 27.6513 57.854 27.082C58.47 26.5127 58.8293 25.7427 58.932 24.772H55.04V23.736H60.29V24.716C60.2153 25.5187 59.9633 26.256 59.534 26.928C59.1047 27.5907 58.54 28.118 57.84 28.51C57.14 28.8927 56.3607 29.084 55.502 29.084C54.5967 29.084 53.7707 28.874 53.024 28.454C52.2773 28.0247 51.6847 27.432 51.246 26.676C50.8167 25.92 50.602 25.066 50.602 24.114C50.602 23.162 50.8167 22.308 51.246 21.552C51.6847 20.7867 52.2773 20.194 53.024 19.774C53.7707 19.3447 54.5967 19.13 55.502 19.13C56.538 19.13 57.4527 19.3867 58.246 19.9C59.0487 20.4133 59.632 21.1367 59.996 22.07H58.47ZM68.9745 24.87C68.9745 25.1127 68.9605 25.3693 68.9325 25.64H62.8005C62.8472 26.396 63.1038 26.9887 63.5705 27.418C64.0465 27.838 64.6205 28.048 65.2925 28.048C65.8432 28.048 66.3005 27.922 66.6645 27.67C67.0378 27.4087 67.2992 27.0633 67.4485 26.634H68.8205C68.6152 27.3713 68.2045 27.9733 67.5885 28.44C66.9725 28.8973 66.2072 29.126 65.2925 29.126C64.5645 29.126 63.9112 28.9627 63.3325 28.636C62.7632 28.3093 62.3152 27.8473 61.9885 27.25C61.6618 26.6433 61.4985 25.9433 61.4985 25.15C61.4985 24.3567 61.6572 23.6613 61.9745 23.064C62.2918 22.4667 62.7352 22.0093 63.3045 21.692C63.8832 21.3653 64.5458 21.202 65.2925 21.202C66.0205 21.202 66.6645 21.3607 67.2245 21.678C67.7845 21.9953 68.2138 22.434 68.5125 22.994C68.8205 23.5447 68.9745 24.17 68.9745 24.87ZM67.6585 24.604C67.6585 24.1187 67.5512 23.7033 67.3365 23.358C67.1218 23.0033 66.8278 22.7373 66.4545 22.56C66.0905 22.3733 65.6845 22.28 65.2365 22.28C64.5925 22.28 64.0418 22.4853 63.5845 22.896C63.1365 23.3067 62.8798 23.876 62.8145 24.604H67.6585ZM72.2101 22.378V26.9C72.2101 27.2733 72.2895 27.5393 72.4481 27.698C72.6068 27.8473 72.8821 27.922 73.2741 27.922H74.2121V29H73.0641C72.3548 29 71.8228 28.8367 71.4681 28.51C71.1135 28.1833 70.9361 27.6467 70.9361 26.9V22.378H69.9421V21.328H70.9361V19.396H72.2101V21.328H74.2121V22.378H72.2101ZM83.8786 20.082C83.6359 20.082 83.4306 19.998 83.2626 19.83C83.0946 19.662 83.0106 19.4567 83.0106 19.214C83.0106 18.9713 83.0946 18.766 83.2626 18.598C83.4306 18.43 83.6359 18.346 83.8786 18.346C84.1119 18.346 84.3079 18.43 84.4666 18.598C84.6346 18.766 84.7186 18.9713 84.7186 19.214C84.7186 19.4567 84.6346 19.662 84.4666 19.83C84.3079 19.998 84.1119 20.082 83.8786 20.082ZM84.4946 21.328V29H83.2206V21.328H84.4946ZM90.4039 21.188C91.3372 21.188 92.0932 21.4727 92.6719 22.042C93.2506 22.602 93.5399 23.414 93.5399 24.478V29H92.2799V24.66C92.2799 23.8947 92.0886 23.3113 91.7059 22.91C91.3232 22.4993 90.8006 22.294 90.1379 22.294C89.4659 22.294 88.9292 22.504 88.5279 22.924C88.1359 23.344 87.9399 23.9553 87.9399 24.758V29H86.6659V21.328H87.9399V22.42C88.1919 22.028 88.5326 21.7247 88.9619 21.51C89.4006 21.2953 89.8812 21.188 90.4039 21.188ZM100.907 22.378V26.9C100.907 27.2733 100.987 27.5393 101.145 27.698C101.304 27.8473 101.579 27.922 101.971 27.922H102.909V29H101.761C101.052 29 100.52 28.8367 100.165 28.51C99.8107 28.1833 99.6334 27.6467 99.6334 26.9V22.378H98.6394V21.328H99.6334V19.396H100.907V21.328H102.909V22.378H100.907ZM107.799 29.126C107.08 29.126 106.427 28.9627 105.839 28.636C105.26 28.3093 104.803 27.8473 104.467 27.25C104.14 26.6433 103.977 25.9433 103.977 25.15C103.977 24.366 104.145 23.6753 104.481 23.078C104.826 22.4713 105.293 22.0093 105.881 21.692C106.469 21.3653 107.127 21.202 107.855 21.202C108.583 21.202 109.241 21.3653 109.829 21.692C110.417 22.0093 110.879 22.4667 111.215 23.064C111.56 23.6613 111.733 24.3567 111.733 25.15C111.733 25.9433 111.556 26.6433 111.201 27.25C110.856 27.8473 110.384 28.3093 109.787 28.636C109.19 28.9627 108.527 29.126 107.799 29.126ZM107.799 28.006C108.256 28.006 108.686 27.8987 109.087 27.684C109.488 27.4693 109.81 27.1473 110.053 26.718C110.305 26.2887 110.431 25.766 110.431 25.15C110.431 24.534 110.31 24.0113 110.067 23.582C109.824 23.1527 109.507 22.8353 109.115 22.63C108.723 22.4153 108.298 22.308 107.841 22.308C107.374 22.308 106.945 22.4153 106.553 22.63C106.17 22.8353 105.862 23.1527 105.629 23.582C105.396 24.0113 105.279 24.534 105.279 25.15C105.279 25.7753 105.391 26.3027 105.615 26.732C105.848 27.1613 106.156 27.4833 106.539 27.698C106.922 27.9033 107.342 28.006 107.799 28.006ZM120.212 21.328V29H118.938V27.866C118.695 28.258 118.355 28.566 117.916 28.79C117.487 29.0047 117.011 29.112 116.488 29.112C115.891 29.112 115.354 28.9907 114.878 28.748C114.402 28.496 114.024 28.1227 113.744 27.628C113.473 27.1333 113.338 26.5313 113.338 25.822V21.328H114.598V25.654C114.598 26.41 114.789 26.9933 115.172 27.404C115.555 27.8053 116.077 28.006 116.74 28.006C117.421 28.006 117.958 27.796 118.35 27.376C118.742 26.956 118.938 26.3447 118.938 25.542V21.328H120.212ZM121.887 25.15C121.887 24.3567 122.046 23.666 122.363 23.078C122.68 22.4807 123.119 22.0187 123.679 21.692C124.248 21.3653 124.897 21.202 125.625 21.202C126.568 21.202 127.342 21.4307 127.949 21.888C128.565 22.3453 128.971 22.98 129.167 23.792H127.795C127.664 23.3253 127.408 22.9567 127.025 22.686C126.652 22.4153 126.185 22.28 125.625 22.28C124.897 22.28 124.309 22.532 123.861 23.036C123.413 23.5307 123.189 24.2353 123.189 25.15C123.189 26.074 123.413 26.788 123.861 27.292C124.309 27.796 124.897 28.048 125.625 28.048C126.185 28.048 126.652 27.9173 127.025 27.656C127.398 27.3947 127.655 27.0213 127.795 26.536H129.167C128.962 27.32 128.551 27.95 127.935 28.426C127.319 28.8927 126.549 29.126 125.625 29.126C124.897 29.126 124.248 28.9627 123.679 28.636C123.119 28.3093 122.68 27.8473 122.363 27.25C122.046 26.6527 121.887 25.9527 121.887 25.15ZM134.675 21.188C135.254 21.188 135.776 21.314 136.243 21.566C136.71 21.8087 137.074 22.1773 137.335 22.672C137.606 23.1667 137.741 23.7687 137.741 24.478V29H136.481V24.66C136.481 23.8947 136.29 23.3113 135.907 22.91C135.524 22.4993 135.002 22.294 134.339 22.294C133.667 22.294 133.13 22.504 132.729 22.924C132.337 23.344 132.141 23.9553 132.141 24.758V29H130.867V18.64H132.141V22.42C132.393 22.028 132.738 21.7247 133.177 21.51C133.625 21.2953 134.124 21.188 134.675 21.188ZM153.775 21.328L151.381 29H150.065L148.217 22.91L146.369 29H145.053L142.645 21.328H143.947L145.711 27.768L147.615 21.328H148.917L150.779 27.782L152.515 21.328H153.775ZM155.697 20.082C155.454 20.082 155.249 19.998 155.081 19.83C154.913 19.662 154.829 19.4567 154.829 19.214C154.829 18.9713 154.913 18.766 155.081 18.598C155.249 18.43 155.454 18.346 155.697 18.346C155.93 18.346 156.126 18.43 156.285 18.598C156.453 18.766 156.537 18.9713 156.537 19.214C156.537 19.4567 156.453 19.662 156.285 19.83C156.126 19.998 155.93 20.082 155.697 20.082ZM156.313 21.328V29H155.039V21.328H156.313ZM160.038 22.378V26.9C160.038 27.2733 160.118 27.5393 160.276 27.698C160.435 27.8473 160.71 27.922 161.102 27.922H162.04V29H160.892C160.183 29 159.651 28.8367 159.296 28.51C158.942 28.1833 158.764 27.6467 158.764 26.9V22.378H157.77V21.328H158.764V19.396H160.038V21.328H162.04V22.378H160.038ZM167.392 21.188C167.971 21.188 168.493 21.314 168.96 21.566C169.427 21.8087 169.791 22.1773 170.052 22.672C170.323 23.1667 170.458 23.7687 170.458 24.478V29H169.198V24.66C169.198 23.8947 169.007 23.3113 168.624 22.91C168.241 22.4993 167.719 22.294 167.056 22.294C166.384 22.294 165.847 22.504 165.446 22.924C165.054 23.344 164.858 23.9553 164.858 24.758V29H163.584V18.64H164.858V22.42C165.11 22.028 165.455 21.7247 165.894 21.51C166.342 21.2953 166.841 21.188 167.392 21.188ZM183.075 21.328V29H181.801V27.866C181.559 28.258 181.218 28.566 180.779 28.79C180.35 29.0047 179.874 29.112 179.351 29.112C178.754 29.112 178.217 28.9907 177.741 28.748C177.265 28.496 176.887 28.1227 176.607 27.628C176.337 27.1333 176.201 26.5313 176.201 25.822V21.328H177.461V25.654C177.461 26.41 177.653 26.9933 178.035 27.404C178.418 27.8053 178.941 28.006 179.603 28.006C180.285 28.006 180.821 27.796 181.213 27.376C181.605 26.956 181.801 26.3447 181.801 25.542V21.328H183.075ZM187.942 29.126C187.354 29.126 186.827 29.028 186.36 28.832C185.894 28.6267 185.525 28.3467 185.254 27.992C184.984 27.628 184.834 27.2127 184.806 26.746H186.122C186.16 27.1287 186.337 27.4413 186.654 27.684C186.981 27.9267 187.406 28.048 187.928 28.048C188.414 28.048 188.796 27.9407 189.076 27.726C189.356 27.5113 189.496 27.2407 189.496 26.914C189.496 26.578 189.347 26.3307 189.048 26.172C188.75 26.004 188.288 25.8407 187.662 25.682C187.093 25.5327 186.626 25.3833 186.262 25.234C185.908 25.0753 185.6 24.8467 185.338 24.548C185.086 24.24 184.96 23.8387 184.96 23.344C184.96 22.952 185.077 22.5927 185.31 22.266C185.544 21.9393 185.875 21.6827 186.304 21.496C186.734 21.3 187.224 21.202 187.774 21.202C188.624 21.202 189.31 21.4167 189.832 21.846C190.355 22.2753 190.635 22.8633 190.672 23.61H189.398C189.37 23.2087 189.207 22.8867 188.908 22.644C188.619 22.4013 188.227 22.28 187.732 22.28C187.275 22.28 186.911 22.378 186.64 22.574C186.37 22.77 186.234 23.0267 186.234 23.344C186.234 23.596 186.314 23.806 186.472 23.974C186.64 24.1327 186.846 24.2633 187.088 24.366C187.34 24.4593 187.686 24.5667 188.124 24.688C188.675 24.8373 189.123 24.9867 189.468 25.136C189.814 25.276 190.108 25.4907 190.35 25.78C190.602 26.0693 190.733 26.4473 190.742 26.914C190.742 27.334 190.626 27.712 190.392 28.048C190.159 28.384 189.828 28.65 189.398 28.846C188.978 29.0327 188.493 29.126 187.942 29.126Z" fill="white"/>
<path d="M36.1611 16.7412C34.1152 14.6904 31.3906 13.5625 28.4951 13.5625C22.5186 13.5625 17.6553 18.4258 17.6553 24.4023C17.6553 26.3115 18.1533 28.1768 19.1006 29.8223L17.5625 35.4375L23.3096 33.9287C24.8916 34.793 26.6738 35.2471 28.4902 35.2471H28.4951C34.4668 35.2471 39.4375 30.3838 39.4375 24.4072C39.4375 21.5117 38.207 18.792 36.1611 16.7412ZM28.4951 33.4209C26.874 33.4209 25.2871 32.9863 23.9053 32.166L23.5781 31.9707L20.1699 32.8643L21.0781 29.5391L20.8633 29.1973C19.96 27.7617 19.4863 26.1064 19.4863 24.4023C19.4863 19.4365 23.5293 15.3936 28.5 15.3936C30.9072 15.3936 33.168 16.3311 34.8672 18.0352C36.5664 19.7393 37.6113 22 37.6064 24.4072C37.6064 29.3779 33.4609 33.4209 28.4951 33.4209ZM33.4365 26.6729C33.168 26.5361 31.835 25.8818 31.5859 25.7939C31.3369 25.7012 31.1563 25.6572 30.9756 25.9307C30.7949 26.2041 30.2773 26.8096 30.1162 26.9951C29.96 27.1758 29.7988 27.2002 29.5303 27.0635C27.9385 26.2676 26.8936 25.6426 25.8438 23.8408C25.5654 23.3623 26.1221 23.3965 26.6396 22.3613C26.7275 22.1807 26.6836 22.0244 26.6152 21.8877C26.5469 21.751 26.0049 20.418 25.7803 19.876C25.5605 19.3486 25.3359 19.4219 25.1699 19.4121C25.0137 19.4023 24.833 19.4023 24.6523 19.4023C24.4717 19.4023 24.1787 19.4707 23.9297 19.7393C23.6807 20.0127 22.9824 20.667 22.9824 22C22.9824 23.333 23.9541 24.6221 24.0859 24.8027C24.2227 24.9834 25.9951 27.7178 28.7148 28.8945C30.4336 29.6367 31.1074 29.7002 31.9668 29.5732C32.4893 29.4951 33.5684 28.9189 33.793 28.2842C34.0176 27.6494 34.0176 27.1074 33.9492 26.9951C33.8857 26.873 33.7051 26.8047 33.4365 26.6729Z" fill="white"/>
</svg>
