<svg width="160" height="48" viewBox="0 0 160 48" fill="none" xmlns="http://www.w3.org/2000/svg">
<path d="M18.602 24.114C18.602 23.162 18.8167 22.308 19.246 21.552C19.6753 20.7867 20.2587 20.1893 20.996 19.76C21.7427 19.3307 22.5687 19.116 23.474 19.116C24.538 19.116 25.4667 19.3727 26.26 19.886C27.0533 20.3993 27.632 21.1273 27.996 22.07H26.47C26.1993 21.482 25.8073 21.0293 25.294 20.712C24.79 20.3947 24.1833 20.236 23.474 20.236C22.7927 20.236 22.1813 20.3947 21.64 20.712C21.0987 21.0293 20.674 21.482 20.366 22.07C20.058 22.6487 19.904 23.33 19.904 24.114C19.904 24.8887 20.058 25.57 20.366 26.158C20.674 26.7367 21.0987 27.1847 21.64 27.502C22.1813 27.8193 22.7927 27.978 23.474 27.978C24.1833 27.978 24.79 27.824 25.294 27.516C25.8073 27.1987 26.1993 26.746 26.47 26.158H27.996C27.632 27.0913 27.0533 27.8147 26.26 28.328C25.4667 28.832 24.538 29.084 23.474 29.084C22.5687 29.084 21.7427 28.874 20.996 28.454C20.2587 28.0247 19.6753 27.432 19.246 26.676C18.8167 25.92 18.602 25.066 18.602 24.114ZM33.7005 21.188C34.2791 21.188 34.8018 21.314 35.2685 21.566C35.7351 21.8087 36.0991 22.1773 36.3605 22.672C36.6311 23.1667 36.7665 23.7687 36.7665 24.478V29H35.5065V24.66C35.5065 23.8947 35.3151 23.3113 34.9325 22.91C34.5498 22.4993 34.0271 22.294 33.3645 22.294C32.6925 22.294 32.1558 22.504 31.7545 22.924C31.3625 23.344 31.1665 23.9553 31.1665 24.758V29H29.8925V18.64H31.1665V22.42C31.4185 22.028 31.7638 21.7247 32.2025 21.51C32.6505 21.2953 33.1498 21.188 33.7005 21.188ZM42.1935 29.126C41.4749 29.126 40.8215 28.9627 40.2335 28.636C39.6549 28.3093 39.1975 27.8473 38.8615 27.25C38.5349 26.6433 38.3715 25.9433 38.3715 25.15C38.3715 24.366 38.5395 23.6753 38.8755 23.078C39.2209 22.4713 39.6875 22.0093 40.2755 21.692C40.8635 21.3653 41.5215 21.202 42.2495 21.202C42.9775 21.202 43.6355 21.3653 44.2235 21.692C44.8115 22.0093 45.2735 22.4667 45.6095 23.064C45.9549 23.6613 46.1275 24.3567 46.1275 25.15C46.1275 25.9433 45.9502 26.6433 45.5955 27.25C45.2502 27.8473 44.7789 28.3093 44.1815 28.636C43.5842 28.9627 42.9215 29.126 42.1935 29.126ZM42.1935 28.006C42.6509 28.006 43.0802 27.8987 43.4815 27.684C43.8829 27.4693 44.2049 27.1473 44.4475 26.718C44.6995 26.2887 44.8255 25.766 44.8255 25.15C44.8255 24.534 44.7042 24.0113 44.4615 23.582C44.2189 23.1527 43.9015 22.8353 43.5095 22.63C43.1175 22.4153 42.6929 22.308 42.2355 22.308C41.7689 22.308 41.3395 22.4153 40.9475 22.63C40.5649 22.8353 40.2569 23.1527 40.0235 23.582C39.7902 24.0113 39.6735 24.534 39.6735 25.15C39.6735 25.7753 39.7855 26.3027 40.0095 26.732C40.2429 27.1613 40.5509 27.4833 40.9335 27.698C41.3162 27.9033 41.7362 28.006 42.1935 28.006ZM51.1486 29.126C50.4299 29.126 49.7766 28.9627 49.1886 28.636C48.6099 28.3093 48.1526 27.8473 47.8166 27.25C47.4899 26.6433 47.3266 25.9433 47.3266 25.15C47.3266 24.366 47.4946 23.6753 47.8306 23.078C48.1759 22.4713 48.6426 22.0093 49.2306 21.692C49.8186 21.3653 50.4766 21.202 51.2046 21.202C51.9326 21.202 52.5906 21.3653 53.1786 21.692C53.7666 22.0093 54.2286 22.4667 54.5646 23.064C54.9099 23.6613 55.0826 24.3567 55.0826 25.15C55.0826 25.9433 54.9053 26.6433 54.5506 27.25C54.2053 27.8473 53.7339 28.3093 53.1366 28.636C52.5393 28.9627 51.8766 29.126 51.1486 29.126ZM51.1486 28.006C51.6059 28.006 52.0353 27.8987 52.4366 27.684C52.8379 27.4693 53.1599 27.1473 53.4026 26.718C53.6546 26.2887 53.7806 25.766 53.7806 25.15C53.7806 24.534 53.6593 24.0113 53.4166 23.582C53.1739 23.1527 52.8566 22.8353 52.4646 22.63C52.0726 22.4153 51.6479 22.308 51.1906 22.308C50.7239 22.308 50.2946 22.4153 49.9026 22.63C49.5199 22.8353 49.2119 23.1527 48.9786 23.582C48.7453 24.0113 48.6286 24.534 48.6286 25.15C48.6286 25.7753 48.7406 26.3027 48.9646 26.732C49.1979 27.1613 49.5059 27.4833 49.8886 27.698C50.2713 27.9033 50.6913 28.006 51.1486 28.006ZM59.4737 29.126C58.8857 29.126 58.3584 29.028 57.8917 28.832C57.425 28.6267 57.0564 28.3467 56.7857 27.992C56.515 27.628 56.3657 27.2127 56.3377 26.746H57.6537C57.691 27.1287 57.8684 27.4413 58.1857 27.684C58.5124 27.9267 58.937 28.048 59.4597 28.048C59.945 28.048 60.3277 27.9407 60.6077 27.726C60.8877 27.5113 61.0277 27.2407 61.0277 26.914C61.0277 26.578 60.8784 26.3307 60.5797 26.172C60.281 26.004 59.819 25.8407 59.1937 25.682C58.6244 25.5327 58.1577 25.3833 57.7937 25.234C57.439 25.0753 57.131 24.8467 56.8697 24.548C56.6177 24.24 56.4917 23.8387 56.4917 23.344C56.4917 22.952 56.6084 22.5927 56.8417 22.266C57.075 21.9393 57.4064 21.6827 57.8357 21.496C58.265 21.3 58.755 21.202 59.3057 21.202C60.155 21.202 60.841 21.4167 61.3637 21.846C61.8864 22.2753 62.1664 22.8633 62.2037 23.61H60.9297C60.9017 23.2087 60.7384 22.8867 60.4397 22.644C60.1504 22.4013 59.7584 22.28 59.2637 22.28C58.8064 22.28 58.4424 22.378 58.1717 22.574C57.901 22.77 57.7657 23.0267 57.7657 23.344C57.7657 23.596 57.845 23.806 58.0037 23.974C58.1717 24.1327 58.377 24.2633 58.6197 24.366C58.8717 24.4593 59.217 24.5667 59.6557 24.688C60.2064 24.8373 60.6544 24.9867 60.9997 25.136C61.345 25.276 61.639 25.4907 61.8817 25.78C62.1337 26.0693 62.2644 26.4473 62.2737 26.914C62.2737 27.334 62.157 27.712 61.9237 28.048C61.6904 28.384 61.359 28.65 60.9297 28.846C60.5097 29.0327 60.0244 29.126 59.4737 29.126ZM71.0721 24.87C71.0721 25.1127 71.0581 25.3693 71.0301 25.64H64.8981C64.9448 26.396 65.2015 26.9887 65.6681 27.418C66.1441 27.838 66.7181 28.048 67.3901 28.048C67.9408 28.048 68.3981 27.922 68.7621 27.67C69.1355 27.4087 69.3968 27.0633 69.5461 26.634H70.9181C70.7128 27.3713 70.3021 27.9733 69.6861 28.44C69.0701 28.8973 68.3048 29.126 67.3901 29.126C66.6621 29.126 66.0088 28.9627 65.4301 28.636C64.8608 28.3093 64.4128 27.8473 64.0861 27.25C63.7595 26.6433 63.5961 25.9433 63.5961 25.15C63.5961 24.3567 63.7548 23.6613 64.0721 23.064C64.3895 22.4667 64.8328 22.0093 65.4021 21.692C65.9808 21.3653 66.6435 21.202 67.3901 21.202C68.1181 21.202 68.7621 21.3607 69.3221 21.678C69.8821 21.9953 70.3115 22.434 70.6101 22.994C70.9181 23.5447 71.0721 24.17 71.0721 24.87ZM69.7561 24.604C69.7561 24.1187 69.6488 23.7033 69.4341 23.358C69.2195 23.0033 68.9255 22.7373 68.5521 22.56C68.1881 22.3733 67.7821 22.28 67.3341 22.28C66.6901 22.28 66.1395 22.4853 65.6821 22.896C65.2341 23.3067 64.9775 23.876 64.9121 24.604H69.7561ZM83.0942 21.328L78.4742 32.612H77.1582L78.6702 28.916L75.5762 21.328H76.9902L79.3982 27.544L81.7782 21.328H83.0942ZM87.7209 29.126C87.0022 29.126 86.3489 28.9627 85.7609 28.636C85.1822 28.3093 84.7249 27.8473 84.3889 27.25C84.0622 26.6433 83.8989 25.9433 83.8989 25.15C83.8989 24.366 84.0669 23.6753 84.4029 23.078C84.7482 22.4713 85.2149 22.0093 85.8029 21.692C86.3909 21.3653 87.0489 21.202 87.7769 21.202C88.5049 21.202 89.1629 21.3653 89.7509 21.692C90.3389 22.0093 90.8009 22.4667 91.1369 23.064C91.4822 23.6613 91.6549 24.3567 91.6549 25.15C91.6549 25.9433 91.4775 26.6433 91.1229 27.25C90.7775 27.8473 90.3062 28.3093 89.7089 28.636C89.1115 28.9627 88.4489 29.126 87.7209 29.126ZM87.7209 28.006C88.1782 28.006 88.6075 27.8987 89.0089 27.684C89.4102 27.4693 89.7322 27.1473 89.9749 26.718C90.2269 26.2887 90.3529 25.766 90.3529 25.15C90.3529 24.534 90.2315 24.0113 89.9889 23.582C89.7462 23.1527 89.4289 22.8353 89.0369 22.63C88.6449 22.4153 88.2202 22.308 87.7629 22.308C87.2962 22.308 86.8669 22.4153 86.4749 22.63C86.0922 22.8353 85.7842 23.1527 85.5509 23.582C85.3175 24.0113 85.2009 24.534 85.2009 25.15C85.2009 25.7753 85.3129 26.3027 85.5369 26.732C85.7702 27.1613 86.0782 27.4833 86.4609 27.698C86.8435 27.9033 87.2635 28.006 87.7209 28.006ZM100.134 21.328V29H98.86V27.866C98.6173 28.258 98.2766 28.566 97.838 28.79C97.4086 29.0047 96.9326 29.112 96.41 29.112C95.8126 29.112 95.276 28.9907 94.8 28.748C94.324 28.496 93.946 28.1227 93.666 27.628C93.3953 27.1333 93.26 26.5313 93.26 25.822V21.328H94.52V25.654C94.52 26.41 94.7113 26.9933 95.094 27.404C95.4766 27.8053 95.9993 28.006 96.662 28.006C97.3433 28.006 97.88 27.796 98.272 27.376C98.664 26.956 98.86 26.3447 98.86 25.542V21.328H100.134ZM103.559 22.574C103.783 22.1353 104.1 21.7947 104.511 21.552C104.931 21.3093 105.44 21.188 106.037 21.188V22.504H105.701C104.273 22.504 103.559 23.2787 103.559 24.828V29H102.285V21.328H103.559V22.574ZM112.514 22.742C112.766 22.3033 113.139 21.9393 113.634 21.65C114.138 21.3513 114.721 21.202 115.384 21.202C116.065 21.202 116.681 21.3653 117.232 21.692C117.792 22.0187 118.231 22.4807 118.548 23.078C118.865 23.666 119.024 24.352 119.024 25.136C119.024 25.9107 118.865 26.6013 118.548 27.208C118.231 27.8147 117.792 28.286 117.232 28.622C116.681 28.958 116.065 29.126 115.384 29.126C114.731 29.126 114.152 28.9813 113.648 28.692C113.153 28.3933 112.775 28.0247 112.514 27.586V32.64H111.24V21.328H112.514V22.742ZM117.722 25.136C117.722 24.5573 117.605 24.0533 117.372 23.624C117.139 23.1947 116.821 22.868 116.42 22.644C116.028 22.42 115.594 22.308 115.118 22.308C114.651 22.308 114.217 22.4247 113.816 22.658C113.424 22.882 113.107 23.2133 112.864 23.652C112.631 24.0813 112.514 24.5807 112.514 25.15C112.514 25.7287 112.631 26.2373 112.864 26.676C113.107 27.1053 113.424 27.4367 113.816 27.67C114.217 27.894 114.651 28.006 115.118 28.006C115.594 28.006 116.028 27.894 116.42 27.67C116.821 27.4367 117.139 27.1053 117.372 26.676C117.605 26.2373 117.722 25.724 117.722 25.136ZM121.975 18.64V29H120.701V18.64H121.975ZM123.67 25.136C123.67 24.352 123.829 23.666 124.146 23.078C124.464 22.4807 124.898 22.0187 125.448 21.692C126.008 21.3653 126.629 21.202 127.31 21.202C127.982 21.202 128.566 21.3467 129.06 21.636C129.555 21.9253 129.924 22.2893 130.166 22.728V21.328H131.454V29H130.166V27.572C129.914 28.02 129.536 28.3933 129.032 28.692C128.538 28.9813 127.959 29.126 127.296 29.126C126.615 29.126 125.999 28.958 125.448 28.622C124.898 28.286 124.464 27.8147 124.146 27.208C123.829 26.6013 123.67 25.9107 123.67 25.136ZM130.166 25.15C130.166 24.5713 130.05 24.0673 129.816 23.638C129.583 23.2087 129.266 22.882 128.864 22.658C128.472 22.4247 128.038 22.308 127.562 22.308C127.086 22.308 126.652 22.42 126.26 22.644C125.868 22.868 125.556 23.1947 125.322 23.624C125.089 24.0533 124.972 24.5573 124.972 25.136C124.972 25.724 125.089 26.2373 125.322 26.676C125.556 27.1053 125.868 27.4367 126.26 27.67C126.652 27.894 127.086 28.006 127.562 28.006C128.038 28.006 128.472 27.894 128.864 27.67C129.266 27.4367 129.583 27.1053 129.816 26.676C130.05 26.2373 130.166 25.7287 130.166 25.15ZM137.345 21.188C138.279 21.188 139.035 21.4727 139.613 22.042C140.192 22.602 140.481 23.414 140.481 24.478V29H139.221V24.66C139.221 23.8947 139.03 23.3113 138.647 22.91C138.265 22.4993 137.742 22.294 137.079 22.294C136.407 22.294 135.871 22.504 135.469 22.924C135.077 23.344 134.881 23.9553 134.881 24.758V29H133.607V21.328H134.881V22.42C135.133 22.028 135.474 21.7247 135.903 21.51C136.342 21.2953 136.823 21.188 137.345 21.188Z" fill="black"/>
<rect x="0.5" y="0.5" width="159" height="47" rx="7.5" stroke="black"/>
</svg>
